<svg width="64" height="64" viewBox="0 0 64 64" fill="none" xmlns="http://www.w3.org/2000/svg">
<path fill-rule="evenodd" clip-rule="evenodd" d="M33.5813 62.0214L33.552 62.0267L33.3626 62.12L33.3093 62.1307L33.272 62.12L33.0826 62.0267C33.0542 62.0178 33.0329 62.0223 33.0186 62.04L33.008 62.0667L32.9626 63.208L32.976 63.2614L33.0026 63.296L33.28 63.4934L33.32 63.504L33.352 63.4934L33.6293 63.296L33.6613 63.2534L33.672 63.208L33.6266 62.0694C33.6195 62.0409 33.6044 62.0249 33.5813 62.0214ZM34.288 61.72L34.2533 61.7254L33.76 61.9734L33.7333 62L33.7253 62.0294L33.7733 63.176L33.7866 63.208L33.808 63.2267L34.344 63.4747C34.3777 63.4836 34.4035 63.4765 34.4213 63.4534L34.432 63.416L34.3413 61.7787C34.3324 61.7467 34.3146 61.7272 34.288 61.72ZM32.3813 61.7254C32.3696 61.7182 32.3555 61.7159 32.3421 61.7189C32.3287 61.7219 32.3169 61.7299 32.3093 61.7414L32.2933 61.7787L32.2026 63.416C32.2044 63.448 32.2195 63.4694 32.248 63.48L32.288 63.4747L32.824 63.2267L32.8506 63.2054L32.8613 63.176L32.9066 62.0294L32.8986 61.9974L32.872 61.9707L32.3813 61.7254Z" fill="#C0C0C0"/>
<path fill-rule="evenodd" clip-rule="evenodd" d="M32 5.33337V22.6667C32 23.7276 32.4214 24.745 33.1715 25.4951C33.9217 26.2453 34.9391 26.6667 36 26.6667H53.3333V53.3334C53.3333 54.7479 52.7714 56.1044 51.7712 57.1046C50.771 58.1048 49.4144 58.6667 48 58.6667H16C14.5855 58.6667 13.2289 58.1048 12.2287 57.1046C11.2285 56.1044 10.6666 54.7479 10.6666 53.3334V10.6667C10.6666 9.25222 11.2285 7.89567 12.2287 6.89547C13.2289 5.89528 14.5855 5.33337 16 5.33337H32ZM40 40H24C23.2927 40 22.6144 40.281 22.1143 40.7811C21.6142 41.2812 21.3333 41.9595 21.3333 42.6667C21.3333 43.374 21.6142 44.0522 22.1143 44.5523C22.6144 45.0524 23.2927 45.3334 24 45.3334H40C40.7072 45.3334 41.3855 45.0524 41.8856 44.5523C42.3857 44.0522 42.6666 43.374 42.6666 42.6667C42.6666 41.9595 42.3857 41.2812 41.8856 40.7811C41.3855 40.281 40.7072 40 40 40ZM26.6666 29.3334H24C23.2927 29.3334 22.6144 29.6143 22.1143 30.1144C21.6142 30.6145 21.3333 31.2928 21.3333 32C21.3333 32.7073 21.6142 33.3856 22.1143 33.8857C22.6144 34.3858 23.2927 34.6667 24 34.6667H26.6666C27.3739 34.6667 28.0521 34.3858 28.5522 33.8857C29.0523 33.3856 29.3333 32.7073 29.3333 32C29.3333 31.2928 29.0523 30.6145 28.5522 30.1144C28.0521 29.6143 27.3739 29.3334 26.6666 29.3334ZM37.3333 5.44804C38.3436 5.66232 39.27 6.16535 40 6.89604L51.7706 18.6667C52.5013 19.3966 53.0043 20.323 53.2186 21.3334H37.3333V5.44804Z" fill="#C0C0C0"/>
</svg>
