<svg width="180" height="197" viewBox="0 0 180 197" fill="none" xmlns="http://www.w3.org/2000/svg">
<path d="M70.7465 134.22C74.4347 137.216 78.9284 139.424 83.716 140.67C89.7374 142.233 98.5009 143.224 103.41 139.107C104.241 138.433 104.995 137.657 105.398 136.723C107.181 138.252 108.178 138.394 109.258 135.115C109.699 135.347 110.166 135.517 110.62 135.352C111.106 135.165 111.246 134.735 111.432 134.344C111.617 133.925 111.911 133.365 112.192 132.77C115.407 133.557 115.976 130.425 116.328 127.463C116.513 125.877 117.645 120.095 117.919 118.696C117.996 118.3 117.696 117.926 117.255 117.858C116.826 117.801 116.385 118.051 116.309 118.447C116.034 119.857 114.902 125.639 114.704 127.31C114.538 128.737 114.327 130.51 113.503 131.354C112.218 132.691 99.8491 122.887 89.5004 118.413C84.8342 116.403 73.7632 112.478 66.444 116.561C68.8603 112.563 71.2317 108.542 73.4817 104.555C73.9675 103.7 72.5037 103.048 72.0179 103.909C69.2885 108.746 66.3993 113.65 63.4334 118.487C63.1394 118.969 63.5293 119.552 64.1493 119.558C63.5804 120.736 63.3695 122.225 63.6635 124.1C64.2068 127.537 66.834 130.698 69.5762 133.178C67.5435 133.756 65.5876 134.401 63.7849 135.104L63.7082 135.132C62.2061 132.753 60.1863 130.499 58.4987 128.228C54.9768 123.499 52.8033 118.006 52.0555 112.376C51.6784 109.555 51.6592 106.701 52.0108 103.875C52.2792 101.723 54.0435 97.9226 51.199 96.5125C50.1571 95.9972 49.2622 96.4785 48.1244 96.4276C48.0797 96.6145 48.0541 96.8127 48.0094 96.9996C46.2771 96.6881 41.4193 99.3443 38.1401 100.703C32.2978 103.122 25.5287 104.792 24.6848 111.17C23.1124 123.012 31.2686 136.548 39.0925 145.796C40.9717 148.016 43.2985 149.477 46.1429 149.845L60.8255 145.36C64.4563 143.876 68.7581 142.194 66.1756 139.498C64.8908 138.156 65.5109 138.383 64.4753 136.423C68.1763 134.99 71.1934 134.288 70.4007 134.481C70.5733 134.441 70.6698 134.333 70.7465 134.22ZM107.111 136.145C106.37 135.613 105.776 135.007 105.481 134.475C105.245 133.636 104.312 132.402 103.736 131.699C104.766 132.458 106.102 133.319 107.834 134.282C107.7 134.627 107.412 135.613 107.111 136.145ZM68.3051 117.886C68.7781 117.501 69.2959 117.557 69.7944 117.846C70.0501 118.135 70.0054 118.526 69.6986 118.792C62.3477 125.35 84.2916 143.059 97.97 137.741C99.8301 136.977 101.665 135.272 100.712 132.899C100.341 131.954 99.6448 131.127 98.7114 130.181C89.6156 121 76.0707 119.936 78.2765 125.548C79.2545 128.267 82.1565 130.555 86.8994 132.367C89.2708 133.296 91.5272 133.522 93.0612 133.007C93.7324 132.78 94.2438 132.367 94.41 131.897C94.8191 130.691 93.0229 129.694 91.8531 128.992C91.4568 128.765 91.3418 128.272 91.5975 127.921C91.8531 127.57 92.4093 127.468 92.8056 127.695C94.8064 128.861 96.7687 130.226 96.0591 132.35C95.7587 133.296 94.8766 134.083 93.6622 134.451C90.9903 135.335 87.8518 134.411 86.1963 133.794C71.8845 128.3 73.4569 116.889 88.3121 121.788C95.0302 125.401 100.7 130.475 102.394 132.537C104.427 138.07 95.8229 142.788 84.0355 138.761C79.2478 137.051 74.5945 134.191 70.9956 130.685C68.2087 127.978 64.0926 121.901 68.3051 117.886Z" fill="#F0566D"/>
<path d="M124.337 25.8608C117.632 24.5922 111.068 25.9854 105.365 29.8761C104.745 30.2952 104.292 30.8955 104.074 31.5695C101.671 38.9886 98.967 46.4869 96.046 53.855C95.8989 54.2344 96.1227 54.6479 96.5446 54.7781C96.9728 54.9084 97.4394 54.7102 97.5865 54.3364C100.52 46.9455 103.231 39.419 105.647 31.9654C105.768 31.5916 106.018 31.2575 106.356 31.0253C111.668 27.395 117.766 26.0981 123.991 27.2761C132.934 28.9695 141.582 35.7487 147.732 45.8862C148.058 46.4129 148.058 47.0756 147.725 47.6192C144.497 52.9768 140.803 58.7479 136.763 64.7679C136.213 65.5891 137.62 66.3253 138.169 65.5098C142.228 59.4726 145.929 53.6847 149.17 48.3046C149.765 47.3305 149.765 46.1298 149.17 45.1841C142.708 34.5311 133.888 27.6673 124.337 25.8608Z" fill="#F0566D"/>
<path d="M126.587 67.6344C126.121 68.2687 125.073 68.4442 124.382 67.9006C121.295 65.4766 118.099 63.5228 114.884 62.0955C113.918 61.6651 113.183 62.9621 114.148 63.3925C117.242 64.763 120.317 66.6489 123.295 68.9823C124.625 70.0357 126.824 69.9111 127.981 68.4103C133.491 61.0138 137.294 54.6086 139.627 48.8375C139.742 48.5543 139.787 48.2598 139.793 47.9653C139.851 47.8294 139.915 47.6878 139.966 47.5519C140.254 46.827 140.03 46.0001 139.455 45.4338C127.674 33.9597 116.717 31.3092 106.465 36.4686L106.389 36.6725C106.095 36.8027 105.679 36.9557 105.168 37.2105C104.196 37.6409 104.938 38.9378 105.897 38.5074C117.805 32.4986 128.568 38.1336 137.761 47.0026C138.132 47.3594 138.26 47.8974 138.075 48.3448C135.179 55.543 130.915 61.642 126.587 67.6344Z" fill="#4F4F4F"/>
<path d="M142.652 75.3417C143.125 72.1928 141.482 69.6499 138.465 68.8627C133.735 67.662 122.184 73.1103 123.495 77.9242C121.66 77.7996 119.27 77.7316 117.435 77.9695C110.193 78.8473 107.77 84.1596 112.296 87.0479C113.293 87.6539 114.354 88.0787 115.371 88.4298C109.848 89.7437 107.457 94.4387 111.574 97.3101C112.865 98.1709 114.29 98.641 115.792 99.0998C109.074 99.768 105.904 105.154 111.427 108.059C113.977 109.407 119.167 110.517 122.108 110.942C122.536 111.004 122.971 110.738 123.047 110.342C123.118 109.945 122.817 109.571 122.37 109.509C119.615 109.113 113.849 107.935 111.612 106.44C108.537 104.486 110.87 100.623 117.243 100.459C119.902 100.346 126.863 100.691 128.5 102.685C130.667 105.267 128.647 108.643 127.976 109.611C125.796 112.72 122.632 113.785 118.541 114.419C117.473 114.584 117.761 116.016 118.822 115.847C122.734 115.235 126.716 114.153 129.363 110.37C132.162 106.321 131.255 102.741 128.998 101.054C132.897 99.9437 134.048 93.8612 131.574 90.8879C135.058 89.5853 135.959 84.5844 134.137 81.6395C138.177 81.0901 142.102 79.0456 142.652 75.3417ZM130.858 97.0893C129.522 100.799 126.946 99.8417 123.821 99.4C120.944 98.9696 114.897 97.7237 112.564 96.1662C109.311 93.8895 111.778 89.608 118.892 89.472C120.925 89.9874 127.573 91.3353 129.689 91.256C131.446 92.5586 131.53 95.2091 130.858 97.0893ZM133.089 87.0934C131.971 90.1119 129.938 90.0497 126.787 89.5061C125.131 89.2172 122.996 89.0077 119.129 88.0223C119.001 87.977 118.88 87.943 118.835 87.943C116.24 87.1501 111.746 86.159 111.644 83.5596C111.548 81.2546 114.84 79.7424 117.665 79.4026C119.596 79.1534 122.44 79.261 124.383 79.4366C126.077 81.13 129.503 81.8662 132.38 81.7926C133.332 82.7837 133.856 84.964 133.089 87.0934ZM127.26 79.493C119.762 76.4008 133.409 69.0723 138.005 70.256C141.361 71.1281 141.169 74.2261 141.028 75.1492C140.319 79.9348 131.951 81.5092 127.26 79.493Z" fill="#4F4F4F"/>
<path d="M77.5735 63.1312C73.3099 66.3253 71.1686 70.0575 64.3548 79.2432C60.6474 84.2384 56.8185 89.4034 53.3924 94.6362C52.8491 95.4687 54.2682 96.1936 54.8051 95.3611C59.8164 87.6984 65.6715 80.2393 71.0664 72.7639C78.2638 62.6094 82.5529 59.7834 96.3793 61.0746C99.4284 61.3861 105.36 61.3125 106.766 63.2267C107.188 63.8044 107.124 64.5916 106.779 65.209C106.434 65.8319 105.859 66.319 105.271 66.7777C102.637 68.8222 99.6266 70.5439 96.3666 71.6935C91.2402 73.4945 88.6707 72.7469 87.4561 73.3302C86.0819 73.9928 85.9732 77.1191 83.6721 80.132C83.231 80.7097 76.9029 89.1425 76.871 89.539C76.8582 89.7259 76.9988 89.8731 77.1778 89.9807C77.0372 90.111 76.5642 90.5357 76.3596 90.717C75.6054 91.4079 76.7815 92.416 77.5358 91.7307C82.9498 86.9508 86.4016 81.2931 88.8241 74.7517C92.7487 74.9046 96.763 74.2023 100.464 72.7186C103.692 71.4386 109.247 68.8617 110.09 66.0187C111.618 60.9953 103.948 60.1061 98.1821 59.7437C91.3298 59.3189 84.1258 58.2608 77.5735 63.1312Z" fill="#4F4F4F"/>
<path d="M144.614 110.948L138.72 104.294C138.049 103.535 136.764 104.435 137.435 105.189L143.329 111.843C143.994 112.591 145.291 111.707 144.614 110.948Z" fill="#F0566D"/>
<path d="M141.73 98.7827C140.708 98.5222 140.247 99.9381 141.315 100.182C145.361 101.133 149.356 102.356 153.185 103.829C154.163 104.203 154.84 102.883 153.837 102.498C149.931 101.003 145.86 99.7512 141.73 98.7827Z" fill="#F0566D"/>
<path d="M154.489 90.0779C150.871 90.9614 146.704 92.0091 142.625 93.0058C141.59 93.2607 142.005 94.6652 143.06 94.4047C146.844 93.4815 151.382 92.3375 154.924 91.4767C155.959 91.2219 155.544 89.823 154.489 90.0779Z" fill="#F0566D"/>
<path d="M109.049 81.7935C104.05 78.6446 96.9361 77.0476 89.9935 77.5176C88.9324 77.5913 89.0155 79.0185 90.1213 78.9618C96.6795 78.5201 103.41 80.0152 108.102 82.9715C108.971 83.5265 109.931 82.3485 109.049 81.7935Z" fill="#4F4F4F"/>
<path d="M87.4375 86.8897C93.9765 86.8161 100.618 88.702 105.086 91.9302C105.917 92.5249 106.965 91.4148 106.121 90.8032C101.366 87.3711 94.3534 85.355 87.4175 85.44C86.3245 85.4513 86.3572 86.9349 87.4375 86.8897Z" fill="#4F4F4F"/>
</svg>
