<svg width="258" height="145" viewBox="0 0 258 145" fill="none" xmlns="http://www.w3.org/2000/svg">
<mask id="path-1-inside-1_228_123" fill="white">
<path d="M190.934 10.5586C191.3 9.8137 192.362 9.81366 192.729 10.5586L200.385 26.1328H240C244.418 26.1328 248 29.7138 248 34.1318V127.133C248 131.551 244.418 135.133 240 135.133H18C13.582 135.133 10.0003 131.551 10 127.133V34.1318C10.0003 29.7139 13.582 26.1329 18 26.1328H183.277L190.934 10.5586Z"/>
</mask>
<path d="M190.934 10.5586C191.3 9.8137 192.362 9.81366 192.729 10.5586L200.385 26.1328H240C244.418 26.1328 248 29.7138 248 34.1318V127.133C248 131.551 244.418 135.133 240 135.133H18C13.582 135.133 10.0003 131.551 10 127.133V34.1318C10.0003 29.7139 13.582 26.1329 18 26.1328H183.277L190.934 10.5586Z" fill="#F6F6F6"/>
<path d="M190.934 10.5586L190.036 10.1173L190.036 10.1174L190.934 10.5586ZM192.729 10.5586L193.626 10.1174L193.626 10.1173L192.729 10.5586ZM200.385 26.1328L199.487 26.574L199.762 27.1328H200.385V26.1328ZM248 34.1318L249 34.1318L249 34.1318L248 34.1318ZM248 127.133L249 127.133V127.133H248ZM18 135.133L18 136.133H18V135.133ZM10 127.133L9 127.133L9 127.133L10 127.133ZM10 34.1318L9 34.1318V34.1318H10ZM18 26.1328L18 25.1328L18 25.1328L18 26.1328ZM183.277 26.1328V27.1328H183.9L184.175 26.574L183.277 26.1328ZM190.934 10.5586L191.831 10.9999L191.831 10.9999L192.729 10.5586L193.626 10.1173C192.893 8.62732 190.769 8.62758 190.036 10.1173L190.934 10.5586ZM192.729 10.5586L191.831 10.9998L199.487 26.574L200.385 26.1328L201.282 25.6916L193.626 10.1174L192.729 10.5586ZM200.385 26.1328V27.1328H240V26.1328V25.1328H200.385V26.1328ZM240 26.1328V27.1328C243.866 27.1328 247 30.2662 247 34.1319L248 34.1318L249 34.1318C249 29.1614 244.97 25.1328 240 25.1328V26.1328ZM248 34.1318H247V127.133H248H249V34.1318H248ZM248 127.133L247 127.133C247 130.999 243.866 134.133 240 134.133V135.133V136.133C244.97 136.133 249 132.103 249 127.133L248 127.133ZM240 135.133V134.133H18V135.133V136.133H240V135.133ZM18 135.133L18 134.133C14.1343 134.133 11.0003 130.998 11 127.133L10 127.133L9 127.133C9.00033 132.103 13.0297 136.133 18 136.133L18 135.133ZM10 127.133H11V34.1318H10H9V127.133H10ZM10 34.1318L11 34.1319C11.0002 30.2663 14.1342 27.1329 18 27.1328L18 26.1328L18 25.1328C13.0298 25.133 9.0003 29.1614 9 34.1318L10 34.1318ZM18 26.1328V27.1328H183.277V26.1328V25.1328H18V26.1328ZM183.277 26.1328L184.175 26.574L191.831 10.9998L190.934 10.5586L190.036 10.1174L182.38 25.6916L183.277 26.1328Z" fill="#CCCCCC" mask="url(#path-1-inside-1_228_123)"/>
</svg>
