<svg viewBox="0 0 90 74" fill="none" xmlns="http://www.w3.org/2000/svg">
<path fill-rule="evenodd" clip-rule="evenodd" d="M41.1445 0.591915C43.2893 -0.0963996 45.5813 -0.186253 47.7734 0.33204L48.7015 0.591915L75.6543 9.23792C76.438 9.49779 77.1434 9.98454 77.659 10.6652L77.9478 11.0983L89.2915 30.6797C89.5785 31.1743 89.7594 31.7232 89.8229 32.2914C89.8865 32.8597 89.8311 33.435 89.6604 33.9808C89.4898 34.5265 89.2075 35.0308 88.8315 35.4617C88.4556 35.8925 87.9941 36.2405 87.4765 36.4835L86.9815 36.6774L78.5212 39.3917V57.2529C78.5206 58.8859 78.0353 60.482 77.127 61.839C76.2186 63.196 74.928 64.2529 73.4185 64.8759L72.7915 65.1069L48.7015 72.8289C46.5567 73.5172 44.2647 73.6071 42.0727 73.0888L41.1445 72.833L17.0545 65.1069C15.4993 64.6075 14.1273 63.6576 13.1124 62.3776C12.0975 61.0976 11.4855 59.5452 11.3538 57.917L11.3249 57.2488V39.3917L2.86452 36.6774C2.32044 36.5028 1.81856 36.2171 1.39071 35.8383C0.962866 35.4595 0.61838 34.996 0.379094 34.4771C0.139809 33.9582 0.010943 33.3952 0.000667112 32.8239C-0.00960882 32.2526 0.0989293 31.6853 0.3194 31.1582L0.554525 30.6797L11.8983 11.0983C12.3235 10.3646 12.9644 9.77985 13.7339 9.42354L14.1876 9.23792L41.1445 0.591915ZM49.048 37.9685V64.055L70.2712 57.2488V42.0399L57.5249 46.1278C56.7075 46.39 55.8286 46.3906 55.0108 46.1296C54.193 45.8686 53.477 45.3589 52.9627 44.6717L52.6987 44.2674L49.048 37.9685ZM40.798 37.9685L37.1474 44.2674C36.6757 45.0814 35.9399 45.7096 35.0621 46.048C34.1843 46.3864 33.2172 46.4145 32.3211 46.1278L19.5749 42.0399V57.2488L40.798 64.0592V37.9685ZM17.368 18.1067L10.2606 30.3868L31.6735 37.259L38.7891 24.9789L17.368 18.1067ZM72.478 18.1067L51.0569 24.9789L58.1684 37.259L79.5854 30.3868L72.478 18.1067ZM46.1812 8.44591C45.5282 8.23736 44.8335 8.19483 44.1599 8.32217L43.6649 8.44591L28.9593 13.1649L44.923 18.284L60.8868 13.1649L46.1812 8.44591Z" fill="#D4D4D4"/>
</svg>
