<svg width="258" height="145" viewBox="0 0 258 145" fill="none" xmlns="http://www.w3.org/2000/svg">
<mask id="path-1-inside-1_275_8" fill="white">
<path d="M240 10C244.418 10 248 13.5817 248 18V111C248 115.418 244.418 119 240 119H41.1719L33.8486 133.896C33.4824 134.641 32.4201 134.64 32.0537 133.896L24.7305 119H18C13.582 119 10.0002 115.418 10 111V18C10 13.5818 13.5818 10.0001 18 10H240Z"/>
</mask>
<path d="M240 10C244.418 10 248 13.5817 248 18V111C248 115.418 244.418 119 240 119H41.1719L33.8486 133.896C33.4824 134.641 32.4201 134.64 32.0537 133.896L24.7305 119H18C13.582 119 10.0002 115.418 10 111V18C10 13.5818 13.5818 10.0001 18 10H240Z" fill="#F6F6F6"/>
<path d="M248 18L249 18L249 18L248 18ZM248 111L249 111V111H248ZM41.1719 119V118H40.5492L40.2745 118.559L41.1719 119ZM33.8486 133.896L32.9512 133.454L32.9512 133.454L33.8486 133.896ZM32.0537 133.896L31.1563 134.337L31.1564 134.337L32.0537 133.896ZM24.7305 119L25.6279 118.559L25.3531 118H24.7305V119ZM18 119L18 120H18V119ZM10 111L9 111L9 111L10 111ZM10 18L9 18V18H10ZM18 10L18 9L18 9L18 10ZM240 10V11C243.866 11 247 14.134 247 18L248 18L249 18C249 13.0295 244.971 9 240 9V10ZM248 18H247V111H248H249V18H248ZM248 111L247 111C247 114.866 243.866 118 240 118V119V120C244.97 120 249 115.97 249 111L248 111ZM240 119V118H41.1719V119V120H240V119ZM41.1719 119L40.2745 118.559L32.9512 133.454L33.8486 133.896L34.746 134.337L42.0693 119.441L41.1719 119ZM33.8486 133.896L32.9512 133.454L32.951 133.454L32.0537 133.896L31.1564 134.337C31.889 135.826 34.0134 135.827 34.7461 134.337L33.8486 133.896ZM32.0537 133.896L32.9511 133.454L25.6279 118.559L24.7305 119L23.8331 119.441L31.1563 134.337L32.0537 133.896ZM24.7305 119V118H18V119V120H24.7305V119ZM18 119L18 118C14.1343 118 11.0002 114.866 11 111L10 111L9 111C9.00024 115.97 13.0297 120 18 120L18 119ZM10 111H11V18H10H9V111H10ZM10 18L11 18C11 14.1341 14.1341 11.0001 18 11L18 10L18 9C13.0296 9.00015 9.00002 13.0295 9 18L10 18ZM18 10V11H240V10V9H18V10Z" fill="#CCCCCC" mask="url(#path-1-inside-1_275_8)"/>
<path d="M30.3223 22.9648V24.4551C30.3223 26.1641 30.3223 27.8594 29.8711 30.4297L28.1074 30.2793C28.5723 27.8867 28.5723 26.1094 28.5859 24.4551V24.3594H21.5449V22.9648H30.3223ZM31.7168 31.1953V32.6309H20.3691V31.1953H31.7168ZM37.541 23.0195V27.8184H34.4922V30.0469C35.6748 30.0332 36.8027 29.9854 38.0742 29.7871L38.1973 31.1816C36.5703 31.4551 35.2305 31.4961 33.6855 31.4961H32.8242V26.4238H35.8594V24.4277H32.8105V23.0195H37.541ZM43.2285 21.8164V34.2578H41.5742V27.9277H40.3711V33.6562H38.7715V22.0215H40.3711V26.5195H41.5742V21.8164H43.2285ZM55.957 31.3594V32.8086H44.5684V31.3594H55.957ZM55 22.9102V24.3047H53.25V28.0781H54.9453V29.4453H45.5117V28.0781H47.1797V24.3047H45.457V22.9102H55ZM48.9297 28.0781H51.5273V24.3047H48.9297V28.0781ZM71.2832 31.4004V32.8086H59.8945V31.4004H64.707V28.625H66.457V31.4004H71.2832ZM70.2852 22.7598V24.168H66.498C66.6416 25.8086 68.1865 27.333 70.8594 27.7227L70.1758 29.1035C67.9951 28.7207 66.3818 27.6543 65.582 26.1777C64.7891 27.6816 63.1895 28.7754 61.043 29.1719L60.3594 27.791C62.9434 27.374 64.4951 25.8154 64.6387 24.168H60.8379V22.7598H70.2852ZM79.0625 22.541V23.9355H76.5879C76.6016 25.3916 77.4629 26.8818 79.4863 27.5312L78.5977 28.8848C77.2168 28.4404 76.2666 27.5518 75.7266 26.4375C75.1729 27.6543 74.1816 28.6182 72.7324 29.0898L71.8027 27.75C73.8604 27.0869 74.7969 25.4941 74.8242 23.9355H72.2812V22.541H79.0625ZM81.8652 21.8164V24.8379H83.5469V26.2871H81.8652V29.3223H80.1152V21.8164H81.8652ZM81.8652 29.8555V34.2578H80.1152V31.2363H73.4844V29.8555H81.8652ZM93.1172 29.4316C95.7012 29.4316 97.3145 30.3203 97.3145 31.8379C97.3145 33.3828 95.7012 34.2715 93.1172 34.2715C90.4785 34.2715 88.8516 33.3828 88.8516 31.8379C88.8516 30.3203 90.4785 29.4316 93.1172 29.4316ZM93.1172 30.7852C91.4766 30.7852 90.5879 31.127 90.6016 31.8379C90.5879 32.5488 91.4766 32.918 93.1172 32.918C94.7305 32.918 95.5918 32.5488 95.5918 31.8379C95.5918 31.127 94.7305 30.7852 93.1172 30.7852ZM97.1914 21.8164V24.7012H98.873V26.1641H97.1914V29.1582H95.4414V21.8164H97.1914ZM89.4258 22.5957V24.168H91.9688V22.5957H93.7188V28.4473H87.6895V22.5957H89.4258ZM89.4258 27.0664H91.9688V25.5215H89.4258V27.0664ZM101.703 22.4453V24.0449H104.15V22.4453H105.873V24.6602H108.17V21.8164H109.906V28.625H108.17V26.082H105.873V28.2695H99.9531V22.4453H101.703ZM101.703 26.875H104.15V25.3848H101.703V26.875ZM103.33 29.1445V30.293H108.17V29.1445H109.906V34.0938H101.607V29.1445H103.33ZM103.33 32.6992H108.17V31.6328H103.33V32.6992Z" fill="#222222"/>
<path d="M30.4521 51.6074C29.6045 51.6074 28.9072 50.9102 28.9072 50.0488C28.9072 49.2012 29.6045 48.5039 30.4521 48.5039C31.3135 48.5039 32.0107 49.2012 32.0107 50.0488C32.0107 50.9102 31.3135 51.6074 30.4521 51.6074ZM47.6719 44.6484C47.6719 46.6445 49.8047 48.5312 52.1562 48.9551L51.5547 50.0352C49.5996 49.6113 47.7949 48.3262 47.002 46.6035C46.1953 48.3125 44.3975 49.5977 42.4355 50.0352L41.8613 48.9551C44.1855 48.5176 46.3047 46.6445 46.3047 44.6484V43.7188H47.6719V44.6484ZM52.6621 52.4688V53.5488H41.4512V52.4688H52.6621ZM63.4082 44.1016V45.5918C63.4082 47.3828 63.4082 49.0645 62.875 51.6074L61.5898 51.4844C61.8496 50.3633 61.9863 49.3789 62.0547 48.4629L54.6992 48.8594L54.5352 47.793L62.123 47.5059C62.1436 46.8496 62.1436 46.2207 62.1504 45.5918V45.168H54.877V44.1016H63.4082ZM64.7207 52.4551V53.5215H53.5508V52.4551H64.7207ZM76.8477 48.6133V49.584H65.6367V48.6133H70.5996V47.7109H67.0723V45.0039H74.1406V44.1289H67.0449V43.2266H75.4395V45.8652H68.3574V46.7949H75.6445V47.7109H71.8848V48.6133H76.8477ZM75.4668 50.4043V53.0977H68.2754V54.123H75.8496V55.0391H66.9766V52.2363H74.1816V51.334H66.9629V50.4043H75.4668ZM79.1445 54.0957C78.6113 54.0957 78.1602 53.6582 78.1738 53.125C78.1602 52.5918 78.6113 52.1543 79.1445 52.1543C79.6641 52.1543 80.1152 52.5918 80.1152 53.125C80.1152 53.6582 79.6641 54.0957 79.1445 54.0957ZM79.1445 48.6953C78.6113 48.6953 78.1602 48.2578 78.1738 47.7246C78.1602 47.1914 78.6113 46.7539 79.1445 46.7539C79.6641 46.7539 80.1152 47.1914 80.1152 47.7246C80.1152 48.2578 79.6641 48.6953 79.1445 48.6953ZM94.5664 44.1562V45.4688C94.5664 47.0547 94.5664 48.7773 94.1152 51.3887L92.7891 51.2656C93.2812 48.8184 93.2812 47.0137 93.2812 45.4688V45.2227H86.0625V44.1562H94.5664ZM96.0293 52.3457V53.4258H84.8594V52.3457H96.0293ZM101.963 44.1973V48.627H98.5996V51.2109C99.9326 51.2041 101.19 51.1426 102.66 50.9102L102.77 51.9492C101.061 52.25 99.707 52.291 98.1758 52.3047H97.3418V47.5605H100.705V45.2637H97.3281V44.1973H101.963ZM107.473 42.9121V55.1621H106.229V48.7363H104.643V54.5332H103.453V43.1582H104.643V47.6836H106.229V42.9121H107.473ZM120.27 52.5371V53.6309H109.059V52.5371H120.27ZM119.244 44.0879V45.1543H117.371V49.2422H119.203V50.2812H110.043V49.2422H111.875V45.1543H110.016V44.0879H119.244ZM113.16 49.2422H116.1V45.1543H113.16V49.2422ZM134.215 42.9258V46.5625H135.965V47.6289H134.215V51.1699H132.916V42.9258H134.215ZM124.494 49.8027C125.444 49.8027 126.545 49.8027 127.693 49.7617V48.9414C126.299 48.7979 125.41 48.1416 125.424 47.1504C125.41 46.0293 126.572 45.332 128.336 45.3457C130.086 45.332 131.248 46.0293 131.248 47.1504C131.248 48.1348 130.373 48.791 128.992 48.9414V49.7207C130.086 49.666 131.193 49.5771 132.219 49.4336L132.328 50.3633C129.689 50.8281 126.791 50.8418 124.631 50.8418L124.494 49.8027ZM134.215 51.7441V55.1621H132.916V52.7559H126.025V51.7441H134.215ZM131.877 43.9648V44.9355H124.809V43.9648H127.693V42.8164H128.992V43.9648H131.877ZM128.336 46.2344C127.283 46.2207 126.654 46.5625 126.654 47.1504C126.654 47.7246 127.283 48.0938 128.336 48.0938C129.375 48.0938 130.004 47.7246 130.004 47.1504C130.004 46.5625 129.375 46.2207 128.336 46.2344ZM147.189 42.9121V55.1621H145.945V48.832H144.359V54.5332H143.17V43.1582H144.359V47.7656H145.945V42.9121H147.189ZM141.68 44.3887V45.4414H138.385V51.1152C139.889 51.1016 141.023 51.0332 142.336 50.7871L142.432 51.8535C140.955 52.1543 139.697 52.209 137.906 52.2227H137.086V44.3887H141.68ZM152.986 43.6367L149.801 55.4902H148.502L151.688 43.6367H152.986ZM164.799 49.0371V50.0762H159.85V51.3613H163.432V55.1348H162.119V52.4141H154.873V51.3613H158.564V50.0762H153.629V49.0371H164.799ZM159.85 42.8711V44.0879H163.678V45.1133H159.932C160.055 46.3301 161.736 47.2256 164.184 47.4512L163.773 48.4219C161.668 48.2305 159.959 47.5264 159.207 46.3711C158.448 47.5264 156.739 48.2305 154.641 48.4219L154.23 47.4512C156.664 47.2256 158.346 46.3301 158.496 45.1133H154.75V44.0879H158.564V42.8711H159.85ZM176.939 52.5371V53.6035H165.729V52.5371H170.637V49.625H171.922V52.5371H176.939ZM171.949 44.6211C171.949 46.5625 174.082 48.3809 176.447 48.7773L175.887 49.8438C173.904 49.4473 172.079 48.2236 171.266 46.5352C170.459 48.2168 168.654 49.4609 166.686 49.8438L166.111 48.7773C168.463 48.3809 170.582 46.5625 170.582 44.6211V43.6914H171.949V44.6211ZM30.4521 68.6074C29.6045 68.6074 28.9072 67.9102 28.9072 67.0488C28.9072 66.2012 29.6045 65.5039 30.4521 65.5039C31.3135 65.5039 32.0107 66.2012 32.0107 67.0488C32.0107 67.9102 31.3135 68.6074 30.4521 68.6074ZM43.3652 60.7871V62.7422H46.6328V60.7871H47.918V66.8848H42.0938V60.7871H43.3652ZM43.3652 65.8457H46.6328V63.7539H43.3652V65.8457ZM51.6094 59.9258V68.9492H50.3105V59.9258H51.6094ZM51.9102 70.8496V71.9023H43.5293V68.0332H44.8418V70.8496H51.9102ZM62.4922 67.6094C65.1445 67.6094 66.8125 68.4434 66.8262 69.8789C66.8125 71.3008 65.1445 72.1484 62.4922 72.1348C59.8672 72.1484 58.1855 71.3008 58.1855 69.8789C58.1855 68.4434 59.8672 67.6094 62.4922 67.6094ZM62.4922 68.5938C60.6328 68.5938 59.4707 69.0723 59.4844 69.8789C59.4707 70.6719 60.6328 71.1367 62.4922 71.1367C64.3652 71.1367 65.5273 70.6719 65.541 69.8789C65.5273 69.0723 64.3652 68.5938 62.4922 68.5938ZM66.7305 60.5137V61.5391C66.7305 62.5234 66.7305 63.5352 66.3887 64.793L65.1172 64.6562C65.4453 63.4053 65.4453 62.5029 65.4453 61.5527H58.2812V60.5137H66.7305ZM68.125 65.5449V66.5977H56.9824V65.5449H61.4531V63.248H62.7246V65.5449H68.125ZM78.6934 59.9121V63.5352H80.4707V64.6152H78.6934V68.8125H77.3809V59.9121H78.6934ZM75.3711 60.8418C75.3711 64.0547 73.1836 66.3926 69.6016 67.4727L69.0547 66.4336C71.9189 65.5723 73.7031 63.9453 73.9629 61.9219H69.5742V60.8418H75.3711ZM79.1992 70.8496V71.9023H70.9141V67.8965H72.2266V70.8496H79.1992ZM94.5117 65.7227V66.7891H85.9805V61.0059H94.4023V62.0723H87.2656V65.7227H94.5117ZM95.7969 69.4688V70.5488H84.5859V69.4688H95.7969ZM101.689 61.1973V65.627H98.3262V68.2109C99.6592 68.2041 100.917 68.1426 102.387 67.9102L102.496 68.9492C100.787 69.25 99.4336 69.291 97.9023 69.3047H97.0684V64.5605H100.432V62.2637H97.0547V61.1973H101.689ZM107.199 59.9121V72.1621H105.955V65.7363H104.369V71.5332H103.18V60.1582H104.369V64.6836H105.955V59.9121H107.199ZM118.492 61.1562V62.4688C118.492 64.0547 118.492 65.7773 118.041 68.3887L116.715 68.2656C117.207 65.8184 117.207 64.0137 117.207 62.4688V62.2227H109.988V61.1562H118.492ZM119.955 69.3457V70.4258H108.785V69.3457H119.955ZM122.279 71.0957C121.746 71.0957 121.295 70.6582 121.309 70.125C121.295 69.5918 121.746 69.1543 122.279 69.1543C122.799 69.1543 123.25 69.5918 123.25 70.125C123.25 70.6582 122.799 71.0957 122.279 71.0957ZM122.279 65.6953C121.746 65.6953 121.295 65.2578 121.309 64.7246C121.295 64.1914 121.746 63.7539 122.279 63.7539C122.799 63.7539 123.25 64.1914 123.25 64.7246C123.25 65.2578 122.799 65.6953 122.279 65.6953ZM137.701 61.1562V62.4688C137.701 64.0547 137.701 65.7773 137.25 68.3887L135.924 68.2656C136.416 65.8184 136.416 64.0137 136.416 62.4688V62.2227H129.197V61.1562H137.701ZM139.164 69.3457V70.4258H127.994V69.3457H139.164ZM145.098 61.1973V65.627H141.734V68.2109C143.067 68.2041 144.325 68.1426 145.795 67.9102L145.904 68.9492C144.195 69.25 142.842 69.291 141.311 69.3047H140.477V64.5605H143.84V62.2637H140.463V61.1973H145.098ZM150.607 59.9121V72.1621H149.363V65.7363H147.777V71.5332H146.588V60.1582H147.777V64.6836H149.363V59.9121H150.607ZM163.404 69.5371V70.6309H152.193V69.5371H163.404ZM162.379 61.0879V62.1543H160.506V66.2422H162.338V67.2812H153.178V66.2422H155.01V62.1543H153.15V61.0879H162.379ZM156.295 66.2422H159.234V62.1543H156.295V66.2422ZM177.855 59.9121V72.1895H176.557V59.9121H177.855ZM171.307 60.8281C173.125 60.8281 174.465 62.4961 174.465 65.1211C174.465 67.7598 173.125 69.4277 171.307 69.4277C169.461 69.4277 168.135 67.7598 168.135 65.1211C168.135 62.4961 169.461 60.8281 171.307 60.8281ZM171.307 61.9902C170.172 61.9902 169.393 63.1934 169.393 65.1211C169.393 67.0625 170.172 68.2656 171.307 68.2656C172.428 68.2656 173.207 67.0625 173.207 65.1211C173.207 63.1934 172.428 61.9902 171.307 61.9902ZM190.994 65.873V66.9121H179.811V65.873H184.773V64.5742H181.205V60.4727H189.613V61.498H182.49V63.5352H189.695V64.5742H186.031V65.873H190.994ZM185.389 67.7051C188.027 67.7051 189.613 68.5117 189.613 69.9336C189.613 71.3555 188.027 72.1484 185.389 72.1621C182.736 72.1484 181.137 71.3555 181.137 69.9336C181.137 68.5117 182.736 67.7051 185.389 67.7051ZM185.389 68.7168C183.516 68.7168 182.449 69.1543 182.449 69.9336C182.449 70.7129 183.516 71.1504 185.389 71.1367C187.234 71.1504 188.314 70.7129 188.314 69.9336C188.314 69.1543 187.234 68.7168 185.389 68.7168ZM30.4521 85.6074C29.6045 85.6074 28.9072 84.9102 28.9072 84.0488C28.9072 83.2012 29.6045 82.5039 30.4521 82.5039C31.3135 82.5039 32.0107 83.2012 32.0107 84.0488C32.0107 84.9102 31.3135 85.6074 30.4521 85.6074ZM51.3906 82.3809V83.4473H47.6855V86.5645H52.6621V87.6309H41.4512V86.5645H46.3867V83.4473H42.791V77.9238H44.1035V82.3809H51.3906ZM63.4766 82.7227V83.7891H54.9453V78.0059H63.3672V79.0723H56.2305V82.7227H63.4766ZM64.7617 86.4688V87.5488H53.5508V86.4688H64.7617ZM78.9941 82.7227V83.7891H70.4629V78.0059H78.8848V79.0723H71.748V82.7227H78.9941ZM80.2793 86.4688V87.5488H69.0684V86.4688H80.2793ZM86.1719 78.1973V82.627H82.8086V85.2109C84.1416 85.2041 85.3994 85.1426 86.8691 84.9102L86.9785 85.9492C85.2695 86.25 83.916 86.291 82.3848 86.3047H81.5508V81.5605H84.9141V79.2637H81.5371V78.1973H86.1719ZM91.6816 76.9121V89.1621H90.4375V82.7363H88.8516V88.5332H87.6621V77.1582H88.8516V81.6836H90.4375V76.9121H91.6816ZM102.975 78.1562V79.4688C102.975 81.0547 102.975 82.7773 102.523 85.3887L101.197 85.2656C101.689 82.8184 101.689 81.0137 101.689 79.4688V79.2227H94.4707V78.1562H102.975ZM104.438 86.3457V87.4258H93.2676V86.3457H104.438ZM106.762 88.0957C106.229 88.0957 105.777 87.6582 105.791 87.125C105.777 86.5918 106.229 86.1543 106.762 86.1543C107.281 86.1543 107.732 86.5918 107.732 87.125C107.732 87.6582 107.281 88.0957 106.762 88.0957ZM106.762 82.6953C106.229 82.6953 105.777 82.2578 105.791 81.7246C105.777 81.1914 106.229 80.7539 106.762 80.7539C107.281 80.7539 107.732 81.1914 107.732 81.7246C107.732 82.2578 107.281 82.6953 106.762 82.6953ZM122.416 82.3809V83.4473H118.711V86.5645H123.688V87.6309H112.477V86.5645H117.412V83.4473H113.816V77.9238H115.129V82.3809H122.416ZM134.502 82.7227V83.7891H125.971V78.0059H134.393V79.0723H127.256V82.7227H134.502ZM135.787 86.4688V87.5488H124.576V86.4688H135.787ZM144.113 77.4727C145.959 77.4727 147.299 78.498 147.299 80.0156C147.299 81.5195 145.959 82.5586 144.113 82.5449C142.268 82.5586 140.955 81.5195 140.955 80.0156C140.955 78.498 142.268 77.4727 144.113 77.4727ZM144.113 78.5254C143.006 78.5254 142.199 79.1133 142.213 80.0156C142.199 80.9043 143.006 81.4922 144.113 81.4785C145.248 81.4922 146.055 80.9043 146.055 80.0156C146.055 79.1133 145.248 78.5254 144.113 78.5254ZM150.279 76.9258V89.1621H148.994V76.9258H150.279ZM140.08 83.502C142.336 83.502 145.467 83.4473 148.146 83.0508L148.242 84.0215C147.128 84.2334 145.966 84.3633 144.838 84.4453V88.7793H143.539V84.5137C142.35 84.5684 141.229 84.5752 140.258 84.582L140.08 83.502ZM162.338 76.9121V89.1621H161.039V76.9121H162.338ZM156.801 80.8496C156.801 82.8047 158.1 84.8008 160 85.6074L159.289 86.6055C157.881 85.9902 156.753 84.7188 156.186 83.1738C155.632 84.8076 154.524 86.168 153.096 86.8105L152.371 85.8125C154.271 84.9648 155.529 82.9004 155.529 80.8496V80.043H152.74V79.0039H155.516V77.1582H156.801V79.0039H159.549V80.043H156.801V80.8496ZM177.924 76.9258V85.9766H176.625V82.791H173.945V83.9395H168.299V77.7324H169.598V79.8105H172.66V77.7324H173.945V79.0996H176.625V76.9258H177.924ZM178.197 87.8496V88.9023H169.926V85.0879H171.238V87.8496H178.197ZM169.598 82.8867H172.66V80.8086H169.598V82.8867ZM173.945 81.7383H176.625V80.166H173.945V81.7383ZM190.023 76.9258V84.1719H188.725V82.6816H185.635V81.6152H188.725V80.125H185.758C184.972 82.0938 183.133 83.4814 180.48 84.2402L179.961 83.2285C182.859 82.3945 184.555 80.8428 184.787 78.8672H180.59V77.8008H186.195C186.195 78.252 186.147 78.6895 186.072 79.0996H188.725V76.9258H190.023ZM185.99 84.3086C188.465 84.3086 190.092 85.2109 190.105 86.7012C190.092 88.1914 188.465 89.1074 185.99 89.1074C183.475 89.1074 181.861 88.1914 181.861 86.7012C181.861 85.2109 183.475 84.3086 185.99 84.3086ZM185.99 85.334C184.24 85.334 183.146 85.8262 183.146 86.7012C183.146 87.5625 184.24 88.0684 185.99 88.0684C187.713 88.0684 188.793 87.5625 188.807 86.7012C188.793 85.8262 187.713 85.334 185.99 85.334ZM30.4521 102.607C29.6045 102.607 28.9072 101.91 28.9072 101.049C28.9072 100.201 29.6045 99.5039 30.4521 99.5039C31.3135 99.5039 32.0107 100.201 32.0107 101.049C32.0107 101.91 31.3135 102.607 30.4521 102.607ZM51.8965 93.9121V102.17H50.666V93.9121H51.8965ZM49.5039 94.1719V101.008H48.2871V98.2188H47.1387C46.9199 99.668 45.8125 100.625 44.3633 100.625C42.7227 100.625 41.5469 99.4219 41.5605 97.6719C41.5469 95.9492 42.7227 94.7461 44.3633 94.7461C45.8193 94.7461 46.9268 95.71 47.1387 97.1523H48.2871V94.1719H49.5039ZM48.3965 101.938C48.3965 103.441 50.2148 104.768 52.498 105.096L52.0469 106.107C50.1191 105.813 48.499 104.891 47.7539 103.592C46.9883 104.891 45.3682 105.813 43.4609 106.107L42.9961 105.096C45.293 104.768 47.0977 103.441 47.0977 101.938V101.541H48.3965V101.938ZM44.3633 95.8398C43.4062 95.8398 42.7227 96.5918 42.7227 97.6719C42.7227 98.7793 43.4062 99.5449 44.3633 99.5449C45.3066 99.5449 46.0039 98.7793 46.0176 97.6719C46.0039 96.5918 45.3066 95.8398 44.3633 95.8398ZM58.0625 97.5215C58.0625 99.5723 59.4023 101.691 61.2891 102.498L60.5781 103.51C59.1357 102.874 57.9873 101.527 57.4199 99.8867C56.8525 101.637 55.6973 103.127 54.2754 103.824L53.5234 102.799C55.3691 101.938 56.7363 99.627 56.75 97.5215V96.2227H53.9473V95.1426H60.8516V96.2227H58.0625V97.5215ZM63.6953 93.9121V106.162H62.3965V93.9121H63.6953ZM73.3887 96.1543C73.3887 97.8086 74.4961 99.4219 76.3418 100.064L75.6309 101.076C74.291 100.563 73.293 99.5518 72.7734 98.2734C72.2402 99.6953 71.1943 100.816 69.752 101.363L69.0547 100.338C70.9551 99.6543 72.0898 97.959 72.1035 96.1133V94.6641H73.3887V96.1543ZM79.2812 93.9258V103.059H77.9824V97.7812H75.3984V96.7148H77.9824V93.9258H79.2812ZM79.5547 104.85V105.902H71.2832V102.033H72.5957V104.85H79.5547ZM86.459 94.7871V95.8398H82.918V97.207H86.3223V98.2051H82.918V99.6953C84.5586 99.6816 85.6387 99.6201 86.8965 99.3809L87.0195 100.447C85.584 100.721 84.4219 100.775 82.4668 100.762H81.6738V94.7871H86.459ZM91.6133 93.9258V101.363H90.3828V98.0957H88.8789V101.268H87.6621V94.1445H88.8789V97.043H90.3828V93.9258H91.6133ZM91.6133 101.951V106.162H90.3281V103.004H83.2871V101.951H91.6133ZM94.6621 105.096C94.1289 105.096 93.6777 104.658 93.6914 104.125C93.6777 103.592 94.1289 103.154 94.6621 103.154C95.1816 103.154 95.6328 103.592 95.6328 104.125C95.6328 104.658 95.1816 105.096 94.6621 105.096ZM94.6621 99.6953C94.1289 99.6953 93.6777 99.2578 93.6914 98.7246C93.6777 98.1914 94.1289 97.7539 94.6621 97.7539C95.1816 97.7539 95.6328 98.1914 95.6328 98.7246C95.6328 99.2578 95.1816 99.6953 94.6621 99.6953ZM204.967 93.9258V97.5625H206.717V98.6289H204.967V102.17H203.668V93.9258H204.967ZM195.246 100.803C196.196 100.803 197.297 100.803 198.445 100.762V99.9414C197.051 99.7979 196.162 99.1416 196.176 98.1504C196.162 97.0293 197.324 96.332 199.088 96.3457C200.838 96.332 202 97.0293 202 98.1504C202 99.1348 201.125 99.791 199.744 99.9414V100.721C200.838 100.666 201.945 100.577 202.971 100.434L203.08 101.363C200.441 101.828 197.543 101.842 195.383 101.842L195.246 100.803ZM204.967 102.744V106.162H203.668V103.756H196.777V102.744H204.967ZM202.629 94.9648V95.9355H195.561V94.9648H198.445V93.8164H199.744V94.9648H202.629ZM199.088 97.2344C198.035 97.2207 197.406 97.5625 197.406 98.1504C197.406 98.7246 198.035 99.0938 199.088 99.0938C200.127 99.0938 200.756 98.7246 200.756 98.1504C200.756 97.5625 200.127 97.2207 199.088 97.2344ZM217.586 93.9258V102.826H216.287V93.9258H217.586ZM217.955 104.85V105.902H209.574V101.924H210.887V104.85H217.955ZM210.941 94.7461C212.787 94.7461 214.195 96.0039 214.195 97.7812C214.195 99.5859 212.787 100.83 210.941 100.83C209.096 100.83 207.674 99.5859 207.674 97.7812C207.674 96.0039 209.096 94.7461 210.941 94.7461ZM210.941 95.8809C209.793 95.8809 208.945 96.6602 208.945 97.7812C208.945 98.9297 209.793 99.6953 210.941 99.6953C212.062 99.6953 212.924 98.9297 212.924 97.7812C212.924 96.6602 212.062 95.8809 210.941 95.8809Z" fill="#4F4F4F"/>
<path d="M107.199 94.8418V95.5254C107.186 96.3457 107.186 97.5625 106.885 99.1484L105.6 99.0254C105.866 97.665 105.907 96.6807 105.928 95.9082H101.02V94.8418H107.199ZM104.068 97.5898V100.119C105.381 100.078 106.734 99.9824 107.965 99.8047L108.047 100.748C105.49 101.199 102.564 101.24 100.404 101.254L100.281 100.201C101.033 100.194 101.888 100.188 102.783 100.16V97.5898H104.068ZM110.07 93.9121V97.8086H111.752V98.9023H110.07V103.113H108.744V93.9121H110.07ZM110.467 104.85V105.902H102.141V102.279H103.439V104.85H110.467ZM118.314 94.7734V98.4648H114.268V100.283C116.305 100.276 117.515 100.215 118.957 99.9688L119.094 101.021C117.508 101.295 116.195 101.336 113.871 101.336H112.969V97.4668H117.002V95.8125H112.941V94.7734H118.314ZM122.689 93.9258V102.936H121.391V99.7227H119.107V98.6562H121.391V96.9609H119.107V95.9219H121.391V93.9258H122.689ZM123.045 104.795V105.861H114.637V102.266H115.936V104.795H123.045ZM131.713 97.8359V98.8887H129.32V100.434C130.407 100.386 131.487 100.311 132.492 100.201L132.588 101.158C129.977 101.514 127.105 101.582 124.809 101.582L124.631 100.543C125.677 100.536 126.846 100.522 128.035 100.488V98.8887H125.725V94.6914H131.604V95.7441H127.023V97.8359H131.713ZM134.734 93.9121V103.1H133.436V93.9121H134.734ZM135.117 104.85V105.902H126.654V102.443H127.953V104.85H135.117ZM149.979 97.959V99.0117H141.488V94.5137H142.801V97.959H149.979ZM151.264 100.666V101.719H148.475V106.162H147.162V101.719H144.195V106.162H142.896V101.719H140.094V100.666H151.264ZM158.414 95.6484C158.414 97.6445 160.547 99.5312 162.898 99.9551L162.297 101.035C160.342 100.611 158.537 99.3262 157.744 97.6035C156.938 99.3125 155.14 100.598 153.178 101.035L152.604 99.9551C154.928 99.5176 157.047 97.6445 157.047 95.6484V94.7188H158.414V95.6484ZM163.404 103.469V104.549H152.193V103.469H163.404ZM177.459 94.418V98.6152H173.932V100.037H178.881V101.09H167.711V100.037H172.646V98.6152H169.133V94.418H177.459ZM170.404 95.4434V97.5762H176.174V95.4434H170.404ZM177.514 102.252V106.162H176.201V103.277H168.955V102.252H177.514ZM191.008 100.598V101.65H179.797V100.598H184.76V99.4355H181.232V96.3184H188.301V95.2246H181.205V94.1992H189.6V97.2754H182.518V98.4238H189.846V99.4355H186.045V100.598H191.008ZM189.668 102.512V106.066H188.355V103.551H181.055V102.512H189.668Z" fill="#C04557"/>
</svg>
