<svg viewBox="0 0 64 64" fill="none" xmlns="http://www.w3.org/2000/svg">
<path d="M33.5814 62.0214L33.5521 62.0267L33.3628 62.12L33.3094 62.1307L33.2721 62.12L33.0828 62.0267C33.0543 62.0178 33.033 62.0223 33.0188 62.04L33.0081 62.0667L32.9628 63.208L32.9761 63.2614L33.0028 63.296L33.2801 63.4934L33.3201 63.504L33.3521 63.4934L33.6294 63.296L33.6614 63.2534L33.6721 63.208L33.6268 62.0694C33.6196 62.0409 33.6045 62.0249 33.5814 62.0214ZM34.2881 61.72L34.2534 61.7254L33.7601 61.9734L33.7334 62L33.7254 62.0294L33.7734 63.176L33.7868 63.208L33.8081 63.2267L34.3441 63.4747C34.3779 63.4836 34.4036 63.4765 34.4214 63.4534L34.4321 63.416L34.3414 61.7787C34.3325 61.7467 34.3148 61.7272 34.2881 61.72ZM32.3814 61.7254C32.3697 61.7182 32.3556 61.7159 32.3422 61.7189C32.3288 61.7219 32.3171 61.7299 32.3094 61.7414L32.2934 61.7787L32.2028 63.416C32.2045 63.448 32.2196 63.4694 32.2481 63.48L32.2881 63.4747L32.8241 63.2267L32.8508 63.2054L32.8614 63.176L32.9068 62.0294L32.8988 61.9974L32.8721 61.9707L32.3814 61.7254Z" fill="#D4D4D4"/>
<path d="M18.6667 34.6667C20.0122 34.6662 21.3082 35.1744 22.2948 36.0893C23.2815 37.0042 23.8858 38.2583 23.9867 39.6L24 40V48C24.0005 49.3455 23.4923 50.6415 22.5774 51.6281C21.6625 52.6147 20.4085 53.2191 19.0667 53.32L18.6667 53.3333H10.6667C9.32117 53.3338 8.0252 52.8256 7.03858 51.9107C6.05196 50.9958 5.44762 49.7417 5.34671 48.4L5.33337 48V40C5.33295 38.6545 5.84112 37.3585 6.75603 36.3719C7.67094 35.3853 8.92496 34.7809 10.2667 34.68L10.6667 34.6667H18.6667ZM42.6667 45.3333C43.3464 45.3341 44.0001 45.5943 44.4944 46.0609C44.9886 46.5275 45.286 47.1652 45.3258 47.8437C45.3657 48.5222 45.1449 49.1903 44.7087 49.7116C44.2724 50.2328 43.6536 50.5677 42.9787 50.648L42.6667 50.6667H32C31.3204 50.6659 30.6666 50.4057 30.1724 49.9391C29.6782 49.4725 29.3807 48.8348 29.3409 48.1563C29.3011 47.4778 29.5218 46.8097 29.9581 46.2884C30.3943 45.7672 31.0131 45.4323 31.688 45.352L32 45.3333H42.6667ZM53.3334 34.6667C54.0406 34.6667 54.7189 34.9476 55.219 35.4477C55.7191 35.9478 56 36.6261 56 37.3333C56 38.0406 55.7191 38.7189 55.219 39.219C54.7189 39.719 54.0406 40 53.3334 40H32C31.2928 40 30.6145 39.719 30.1144 39.219C29.6143 38.7189 29.3334 38.0406 29.3334 37.3333C29.3334 36.6261 29.6143 35.9478 30.1144 35.4477C30.6145 34.9476 31.2928 34.6667 32 34.6667H53.3334ZM18.6667 8C20.0812 8 21.4377 8.5619 22.4379 9.5621C23.4381 10.5623 24 11.9188 24 13.3333V21.3333C24 22.7478 23.4381 24.1044 22.4379 25.1046C21.4377 26.1048 20.0812 26.6667 18.6667 26.6667H10.6667C9.25222 26.6667 7.89567 26.1048 6.89547 25.1046C5.89528 24.1044 5.33337 22.7478 5.33337 21.3333V13.3333C5.33337 11.9188 5.89528 10.5623 6.89547 9.5621C7.89567 8.5619 9.25222 8 10.6667 8H18.6667ZM42.6667 18.6667C43.3464 18.6674 44.0001 18.9277 44.4944 19.3943C44.9886 19.8608 45.286 20.4985 45.3258 21.1771C45.3657 21.8556 45.1449 22.5237 44.7087 23.0449C44.2724 23.5661 43.6536 23.9011 42.9787 23.9813L42.6667 24H32C31.3204 23.9992 30.6666 23.739 30.1724 23.2724C29.6782 22.8058 29.3807 22.1681 29.3409 21.4896C29.3011 20.8111 29.5218 20.143 29.9581 19.6218C30.3943 19.1006 31.0131 18.7656 31.688 18.6853L32 18.6667H42.6667ZM53.3334 8C54.0131 8.00075 54.6668 8.26101 55.161 8.7276C55.6553 9.19418 55.9527 9.83187 55.9925 10.5104C56.0323 11.1889 55.8116 11.857 55.3753 12.3782C54.9391 12.8994 54.3203 13.2344 53.6454 13.3147L53.3334 13.3333H32C31.3204 13.3326 30.6666 13.0723 30.1724 12.6057C29.6782 12.1392 29.3807 11.5015 29.3409 10.8229C29.3011 10.1444 29.5218 9.47632 29.9581 8.95511C30.3943 8.4339 31.0131 8.09894 31.688 8.01867L32 8H53.3334Z" fill="#D4D4D4"/>
</svg>
